<svg class="emulsify-logo" width="429" height="169" viewBox="0 0 429 169" preserveAspectRatio="none" fill="none" xmlns="http://www.w3.org/2000/svg">
	<path d="M8.49403 132.107V159.324H19.5469C27.7517 159.324 32.5992 154.25 32.5992 145.555C32.5992 136.879 27.7706 132.107 19.5469 132.107H8.49403ZM15.4162 137.69H18.6416C23.0175 137.69 25.5638 140.462 25.5638 145.574C25.5638 151.006 23.1495 153.741 18.6416 153.741H15.4162V137.69ZM54.6107 153.741H42.8787V148.195H53.9128V143.103H42.8787V137.69H54.6107V132.107H35.9565V159.324H54.6107V153.741ZM57.6285 151.308C57.7228 156.664 62.2119 159.795 69.0021 159.795C76.1883 159.795 80.4699 156.325 80.4699 150.855C80.4699 146.573 77.8293 144.216 72.0199 143.103L69.2284 142.575C66.2671 142.009 65.0223 141.217 65.0223 139.783C65.0223 138.18 66.5123 137.048 69.0209 137.048C71.5295 137.048 73.378 138.218 73.4911 140.179H79.9229C79.8475 134.992 75.8111 131.635 68.9643 131.635C62.7023 131.635 58.1566 135.011 58.1566 140.255C58.1566 144.404 60.967 147.064 66.3992 148.082L69.1907 148.61C72.416 149.233 73.5854 150.006 73.5854 151.515C73.5854 153.175 71.8313 154.382 69.1341 154.382C66.4746 154.382 64.381 153.25 64.0603 151.308H57.6285ZM90.5986 159.324V132.107H83.6764V159.324H90.5986ZM119.778 147.818V144.48H108.121V149.233H113.1L113.082 149.648C112.893 152.383 110.705 154.231 107.574 154.231C103.594 154.231 101.029 150.968 101.029 145.574C101.029 140.274 103.349 137.199 107.272 137.199C109.932 137.199 111.969 138.67 112.648 141.085H119.495C118.797 135.539 113.855 131.635 107.253 131.635C99.0297 131.635 93.9748 136.841 93.9748 145.668C93.9748 154.608 99.0297 159.795 107.423 159.795C115.175 159.795 119.778 155.25 119.778 147.818ZM129.774 159.324V143.348H129.925L141.525 159.324H146.995V132.107H140.431V147.931H140.28L128.737 132.107H123.21V159.324H129.774ZM157.746 151.308C157.84 156.664 162.329 159.795 169.119 159.795C176.306 159.795 180.587 156.325 180.587 150.855C180.587 146.573 177.947 144.216 172.137 143.103L169.346 142.575C166.385 142.009 165.14 141.217 165.14 139.783C165.14 138.18 166.63 137.048 169.138 137.048C171.647 137.048 173.495 138.218 173.609 140.179H180.04C179.965 134.992 175.929 131.635 169.082 131.635C162.82 131.635 158.274 135.011 158.274 140.255C158.274 144.404 161.084 147.064 166.517 148.082L169.308 148.61C172.533 149.233 173.703 150.006 173.703 151.515C173.703 153.175 171.949 154.382 169.251 154.382C166.592 154.382 164.498 153.25 164.178 151.308H157.746ZM197.412 159.324V149.968L206.786 132.107H199.487L194.092 143.423H193.96L188.547 132.107H181.115L190.49 149.968V159.324H197.412ZM207.352 151.308C207.446 156.664 211.935 159.795 218.725 159.795C225.912 159.795 230.193 156.325 230.193 150.855C230.193 146.573 227.553 144.216 221.743 143.103L218.952 142.575C215.991 142.009 214.746 141.217 214.746 139.783C214.746 138.18 216.236 137.048 218.744 137.048C221.253 137.048 223.101 138.218 223.215 140.179H229.646C229.571 134.992 225.535 131.635 218.688 131.635C212.426 131.635 207.88 135.011 207.88 140.255C207.88 144.404 210.69 147.064 216.123 148.082L218.914 148.61C222.139 149.233 223.309 150.006 223.309 151.515C223.309 153.175 221.555 154.382 218.858 154.382C216.198 154.382 214.104 153.25 213.784 151.308H207.352ZM246.622 159.324V137.69H254.129V132.107H232.212V137.69H239.718V159.324H246.622ZM275.706 153.741H263.974V148.195H275.009V143.103H263.974V137.69H275.706V132.107H257.052V159.324H275.706V153.741ZM309.488 159.324V132.107H301.49L294.625 149.893H294.474L287.608 132.107H279.611V159.324H285.703V142.33H285.854L292.569 159.324H296.53L303.263 142.33H303.395V159.324H309.488Z" fill="#06435C"></path>
	<path d="M229.428 1.50024C228.592 1.50024 227.254 1.61138 226.808 2.72267C221.678 22.5037 215.49 57.2316 212.87 80.1243C212.591 80.1243 212.368 80.1243 212.2 80.1243C212.2 80.1243 209.19 93.4598 203.447 93.4598C199.21 93.4598 197.983 87.4588 198.262 83.4026C198.541 73.9011 204.116 46.3965 204.674 40.6734C204.785 38.3396 197.593 34.1167 192.52 34.1167C190.345 34.1167 188.673 34.6724 188.561 35.8948C186.22 49.5082 177.243 79.2908 168.211 91.2372L166.427 90.6816C165.48 77.0682 170.776 55.7314 175.85 40.0622C174.735 38.2841 169.828 35.5614 164.253 35.5614C157.841 35.5614 149.367 70.6783 149.367 86.5698C149.367 87.6811 149.534 88.7368 149.813 89.8481C148.252 93.4043 145.855 97.1827 142.844 97.1827C139.276 97.1827 137.659 94.071 137.659 87.5144C137.659 73.3454 145.297 52.6753 147.193 38.9509C147.75 34.6168 139.164 30.7828 132.474 30.7828C130.411 30.7828 128.125 31.3385 127.568 32.3942C120.041 46.1187 115.581 62.4547 110.396 76.6237H109.838C110.396 66.5665 112.682 52.3975 113.685 43.4516C114.243 39.3954 107.274 35.9504 100.193 35.9504C98.6876 35.9504 96.2345 36.2282 95.6769 37.2839C91.4397 46.7855 86.645 61.2323 81.3484 75.2346H80.7909C81.0697 67.0666 85.1396 50.7306 88.1503 38.2285C88.7078 36.0615 82.0175 32.672 76.5537 32.672C72.9298 32.672 66.0164 60.8433 64.8456 83.6249C56.2596 83.5137 42.8789 85.7919 25.484 89.9037C26.3203 80.4021 27.2681 71.2895 28.6062 62.4547C36.5231 61.2323 45.6666 60.0099 53.472 59.8432C55.8136 59.8432 55.9251 57.954 55.9251 57.0094C55.9251 55.8981 53.0817 51.564 50.6286 49.2303C49.0118 47.7301 44.217 48.2857 37.8054 48.6747L31.0036 49.3415C32.5089 41.1734 34.4045 33.0054 36.5789 25.0041C44.1055 23.7817 50.3498 22.8371 57.7092 22.2815C57.7092 22.2815 56.5941 24.893 56.5941 26.5044C56.4826 28.0046 60.8314 27.7268 64.2323 26.2265C65.8491 25.2819 74.7138 19.1698 74.7138 18.2252C74.7138 17.1139 71.7032 10.8907 71.0341 10.2239C67.466 6.83446 62.0022 8.05689 56.9844 8.61254C53.3047 9.00149 47.5622 9.72382 40.8718 10.9462L41.8196 8.33471C39.1992 6.27882 32.9549 5.0564 28.1602 4.50075C26.5433 7.33455 25.038 10.6129 23.5327 14.2801C17.2326 15.7804 10.7095 17.5585 4.85545 19.4477C2.01205 20.3923 8.81391 30.3383 12.4936 29.6716C14.8352 29.2826 17.0096 28.727 19.0724 28.338C17.0096 35.9504 15.2255 44.2295 13.6087 52.6753C8.98117 53.8978 5.02271 55.1202 3.51738 56.0648C1.17576 57.6762 6.63955 66.3998 11.1555 65.5663H11.5458C10.0405 75.5124 8.81391 85.2918 8.14488 94.1266L0.78549 96.0158C-2.22517 96.8493 4.07491 107.018 8.5909 106.24L9.42719 105.962C13.9432 108.129 23.8672 111.685 24.146 108.573L24.4247 103.128C41.2621 99.9053 54.4198 97.7383 65.5146 97.016C67.2429 103.739 71.5917 107.518 78.2263 107.518C81.6272 107.518 84.3591 105.351 84.3591 105.351C84.6379 93.5154 91.0494 74.3456 95.2866 63.0659H96.4017C95.2866 73.1231 94.5061 85.3474 94.3388 95.8491C94.2273 105.517 97.6283 111.518 106.493 111.518C110.173 111.518 112.793 109.629 112.793 109.629C113.072 97.7939 119.483 74.1233 125.059 62.8437H126.564C125.059 69.4003 122.494 82.4025 122.327 87.8478C121.937 98.8496 125.895 108.24 138.997 108.24C146.97 108.24 152.489 103.906 155.5 99.0719C159.291 102.906 164.197 105.517 168.211 105.517C176.128 105.517 182.15 91.7929 184.324 85.5141L185.439 85.6252C184.882 93.4043 186.777 103.962 199.768 103.962C204.116 103.962 208.075 102.072 211.253 99.4052C211.197 101.072 211.308 102.406 211.754 103.184C212.591 105.517 226.362 111.074 228.257 108.74C228.369 105.073 228.815 101.406 229.094 97.7383C231.435 68.0668 237.122 37.0617 243.311 8.39028C243.757 6.001 233.498 1.50024 229.428 1.50024Z" fill="white"></path>
	<path d="M274.867 53.0643C279.215 53.0643 289.474 45.563 289.474 40.3955C289.474 37.9507 284.568 31.2829 282.895 31.2829C280.275 31.2829 239.519 41.6179 238.795 47.3411C238.404 50.8972 240.857 58.5096 243.032 60.3988C252.454 61.6212 266.782 71.2895 266.782 84.3472C266.782 92.9041 262.824 98.7384 255.019 98.7384C247.938 98.7384 245.987 93.0153 246.154 91.7928C246.154 90.6816 252.175 80.2354 252.287 76.1236C252.287 75.0123 247.213 70.4004 242.474 70.4004C236.341 70.4004 232.216 80.1798 232.216 86.5698C232.216 97.2938 246.544 110.907 261.04 110.907C272.915 110.907 283.397 105.073 283.397 89.4036C283.397 65.733 255.576 55.009 255.576 55.009L255.465 54.4534C256.691 53.3421 266.392 49.397 270.908 49.2859C272.692 49.397 273.083 53.0643 274.867 53.0643Z" fill="white"></path>
	<path d="M308.43 27.7823C320.584 27.7823 324.543 18.9476 324.543 14.169C324.543 10.1128 321.699 8.44584 318.8 7.22342C320.138 2.44485 317.295 1.50024 312.5 1.50024C302.799 1.50024 300.346 14.169 300.346 18.2252C300.402 25.0597 305.419 27.7823 308.43 27.7823Z" fill="white"></path>
	<path d="M404.269 33.6166C400.311 33.6166 395.516 69.6781 394.289 74.6789C392.784 80.4021 387.32 92.9042 383.25 92.9042C380.909 92.9042 380.518 89.7925 380.518 86.3475C381.076 70.9561 385.815 55.1757 390.498 40.3955C390.219 37.1172 384.644 34.1167 379.738 34.1167C379.348 34.1167 379.013 34.1167 378.623 34.1723C377.341 32.5053 375.724 31.2829 373.828 31.2829C368.922 31.2829 360.838 33.1721 349.13 34.8391C351.304 25.8376 354.984 13.8912 354.984 7.22341C354.984 2.44485 350.189 0 342.83 0C340.098 0 338.202 0.555647 338.202 0.555647C336.864 7.11228 333.575 24.7818 331.233 36.6171C318.131 38.9508 318.8 38.673 318.8 41.5068C318.8 44.1184 320.696 48.8414 323.037 50.6194L327.832 54.4534C326.996 60.4544 324.877 69.0669 322.814 79.2908C321.086 78.9574 319.692 79.0685 319.692 79.0685C319.302 84.2361 316.124 97.9605 308.486 97.9605C306.423 97.9605 304.806 95.7935 304.918 91.015C305.029 81.0689 311.608 56.4537 315.288 43.8405C316.904 38.2841 302.576 36.2282 300.68 36.2282C299.454 36.2282 298.06 36.506 297.558 38.0062C294.157 47.6745 286.519 78.0128 286.519 90.9038C286.519 103.017 292.652 108.851 303.022 108.851C309.489 108.851 314.897 106.462 319.079 102.961C318.633 106.684 318.354 110.296 318.354 113.463C318.354 122.298 322.034 128.577 330.508 128.577C338.983 128.577 359.723 110.907 359.723 82.6247C359.723 67.1221 355.485 59.0653 346.342 49.5637L346.453 48.8969C354.259 47.7856 363.012 46.6188 370.316 45.7853C366.469 57.565 363.681 71.0672 363.681 84.2361C363.681 92.2374 366.302 103.795 378.679 103.795C384.533 103.795 388.77 99.4608 390.944 95.2379C389.718 105.573 385.09 122.965 385.09 128.132C385.09 130.299 385.48 130.855 386.874 131.522C389.606 132.744 396.966 135.356 399.14 135.356C400.645 135.356 401.76 135.244 402.151 132.355C403.098 119.409 407.614 91.2928 410.179 77.5127C411.684 68.0112 418.653 52.5086 418.653 39.562C418.598 36.6171 410.96 33.6166 404.269 33.6166ZM348.851 86.6809C348.293 107.629 339.15 117.019 337.366 117.019C335.749 117.019 335.303 114.852 335.47 111.852C335.582 108.74 336.139 104.795 336.585 101.517C338.76 85.1807 341.882 69.0113 342.885 61.5101C348.293 68.7335 349.13 78.624 348.851 86.6809Z" fill="white"></path>
	<path d="M419.638 114.017C424.464 114.017 428.267 110.076 428.267 105.428V105.381C428.267 100.732 424.511 96.8386 419.686 96.8386C414.861 96.8386 411.058 100.779 411.058 105.428V105.475C411.058 110.124 414.813 114.017 419.638 114.017ZM419.638 113.073C415.312 113.073 412.056 109.652 412.056 105.475V105.428C412.056 101.251 415.336 97.7825 419.686 97.7825C424.012 97.7825 427.268 101.204 427.268 105.381V105.428C427.268 109.604 423.988 113.073 419.638 113.073ZM415.883 109.722H418.426V106.962H419.496H419.543L421.397 109.722H424.321L422.134 106.56C423.275 106.089 424.012 105.168 424.012 103.776V103.729C424.012 102.856 423.75 102.171 423.228 101.652C422.586 101.015 421.587 100.638 420.138 100.638H415.883V109.722ZM418.426 105.003V102.809H420.066C420.922 102.809 421.469 103.163 421.469 103.894V103.941C421.469 104.602 420.969 105.003 420.09 105.003H418.426Z" fill="white"></path>
</svg>
